<?xml version="1.0" encoding="utf-8"?>
<svg version="1.1" xmlns:xlink="http://www.w3.org/1999/xlink" width="117px" height="74px" xmlns="http://www.w3.org/2000/svg">
  <g transform="matrix(1 0 0 1 -233 -190 )">
    <path d="M 243.5 263.5  L 349.5 263.5  L 349.5 210.5  L 329.5 190.5  L 233.5 190.5  L 233.5 253.5  L 238.5 253.5  L 238.5 258.5  L 243.5 258.5  L 243.5 263.5  Z " fill-rule="nonzero" fill="#ffffff" stroke="none" />
    <path d="M 243.5 263.5  L 349.5 263.5  L 349.5 210.5  L 329.5 190.5  L 233.5 190.5  L 233.5 253.5  L 238.5 253.5  L 238.5 258.5  L 243.5 258.5  L 243.5 263.5  Z " stroke-width="1" stroke="#797979" fill="none" />
    <path d="M 339.5 205.5  L 344.5 206  L 344.5 258.5  L 244 258.5  M 329.5 191  L 329.5 200.5  L 339.5 200.5  L 339.5 253.5  L 239 253.5  M 349 210.5  L 344.5 210.5  " stroke-width="1" stroke="#797979" fill="none" />
  </g>
</svg>