<?xml version="1.0" encoding="utf-8"?>
<svg version="1.1" xmlns:xlink="http://www.w3.org/1999/xlink" width="95px" height="49px" xmlns="http://www.w3.org/2000/svg">
  <defs>
    <mask fill="white" id="clip7">
      <path d="M 80.0980392156863 0.401639344262293  L 24.9142156862745 0  L 0.465686274509799 24.2991803278689  L 24.9142156862745 48.3975409836066  L 80.0980392156863 48.3975409836066  C 80.0980392156863 48.3975409836066  94.5588642027369 37.7846939921011  94.5343137254902 24.2991803278689  C 94.5099332630108 10.9070553356235  80.0980392156863 0.401639344262293  80.0980392156863 0.401639344262293  Z " fill-rule="evenodd" />
    </mask>
  </defs>
  <g transform="matrix(1 0 0 1 -770 -55 )">
    <path d="M 80.0980392156863 0.401639344262293  L 24.9142156862745 0  L 0.465686274509799 24.2991803278689  L 24.9142156862745 48.3975409836066  L 80.0980392156863 48.3975409836066  C 80.0980392156863 48.3975409836066  94.5588642027369 37.7846939921011  94.5343137254902 24.2991803278689  C 94.5099332630108 10.9070553356235  80.0980392156863 0.401639344262293  80.0980392156863 0.401639344262293  Z " fill-rule="nonzero" fill="#ffffff" stroke="none" transform="matrix(1 0 0 1 770 55 )" />
    <path d="M 80.0980392156863 0.401639344262293  L 24.9142156862745 0  L 0.465686274509799 24.2991803278689  L 24.9142156862745 48.3975409836066  L 80.0980392156863 48.3975409836066  C 80.0980392156863 48.3975409836066  94.5588642027369 37.7846939921011  94.5343137254902 24.2991803278689  C 94.5099332630108 10.9070553356235  80.0980392156863 0.401639344262293  80.0980392156863 0.401639344262293  Z " stroke-width="2" stroke="#797979" fill="none" transform="matrix(1 0 0 1 770 55 )" mask="url(#clip7)" />
  </g>
</svg>