<?xml version="1.0" encoding="utf-8"?>
<svg version="1.1" xmlns:xlink="http://www.w3.org/1999/xlink" width="79px" height="42px" xmlns="http://www.w3.org/2000/svg">
  <defs>
    <mask fill="white" id="clip8">
      <path d="M 68.2450495049505 0.177966101694919  L 9.58168316831683 0.177966101694919  C 9.58168316831683 0.177966101694919  0.605151685609177 9.33306300729356  0.586633663366338 21  C 0.567978479522567 32.7533531193821  9.58168316831683 42  9.58168316831683 42  L 68.2450495049505 42  C 68.2450495049505 42  78.2378911104056 32.7520720057963  78.2178217821782 21  C 78.1978956666552 9.33178959611344  68.2450495049505 0.177966101694919  68.2450495049505 0.177966101694919  Z " fill-rule="evenodd" />
    </mask>
  </defs>
  <g transform="matrix(1 0 0 1 -894 -190 )">
    <path d="M 68.2450495049505 0.177966101694919  L 9.58168316831683 0.177966101694919  C 9.58168316831683 0.177966101694919  0.605151685609177 9.33306300729356  0.586633663366338 21  C 0.567978479522567 32.7533531193821  9.58168316831683 42  9.58168316831683 42  L 68.2450495049505 42  C 68.2450495049505 42  78.2378911104056 32.7520720057963  78.2178217821782 21  C 78.1978956666552 9.33178959611344  68.2450495049505 0.177966101694919  68.2450495049505 0.177966101694919  Z " fill-rule="nonzero" fill="#ffffff" stroke="none" transform="matrix(1 0 0 1 894 190 )" />
    <path d="M 68.2450495049505 0.177966101694919  L 9.58168316831683 0.177966101694919  C 9.58168316831683 0.177966101694919  0.605151685609177 9.33306300729356  0.586633663366338 21  C 0.567978479522567 32.7533531193821  9.58168316831683 42  9.58168316831683 42  L 68.2450495049505 42  C 68.2450495049505 42  78.2378911104056 32.7520720057963  78.2178217821782 21  C 78.1978956666552 9.33178959611344  68.2450495049505 0.177966101694919  68.2450495049505 0.177966101694919  Z " stroke-width="2" stroke="#797979" fill="none" transform="matrix(1 0 0 1 894 190 )" mask="url(#clip8)" />
  </g>
</svg>