<?xml version="1.0" encoding="utf-8"?>
<svg version="1.1" xmlns:xlink="http://www.w3.org/1999/xlink" width="101px" height="49px" xmlns="http://www.w3.org/2000/svg">
  <defs>
    <mask fill="white" id="clip9">
      <path d="M 85.156862745098 0.401639344262293  L 26.4877450980392 0  L 0.495098039215681 24.2991803278689  L 26.4877450980392 48.3975409836066  L 85.156862745098 48.3975409836066  C 85.156862745098 48.3975409836066  100.531002994489 37.7846939921011  100.504901960784 24.2991803278689  C 100.478981679622 10.9070553356235  85.156862745098 0.401639344262293  85.156862745098 0.401639344262293  Z " fill-rule="evenodd" />
    </mask>
  </defs>
  <g transform="matrix(1 0 0 1 -839 -531 )">
    <path d="M 85.156862745098 0.401639344262293  L 26.4877450980392 0  L 0.495098039215681 24.2991803278689  L 26.4877450980392 48.3975409836066  L 85.156862745098 48.3975409836066  C 85.156862745098 48.3975409836066  100.531002994489 37.7846939921011  100.504901960784 24.2991803278689  C 100.478981679622 10.9070553356235  85.156862745098 0.401639344262293  85.156862745098 0.401639344262293  Z " fill-rule="nonzero" fill="#ffffff" stroke="none" transform="matrix(1 0 0 1 839 531 )" />
    <path d="M 85.156862745098 0.401639344262293  L 26.4877450980392 0  L 0.495098039215681 24.2991803278689  L 26.4877450980392 48.3975409836066  L 85.156862745098 48.3975409836066  C 85.156862745098 48.3975409836066  100.531002994489 37.7846939921011  100.504901960784 24.2991803278689  C 100.478981679622 10.9070553356235  85.156862745098 0.401639344262293  85.156862745098 0.401639344262293  Z " stroke-width="2" stroke="#797979" fill="none" transform="matrix(1 0 0 1 839 531 )" mask="url(#clip9)" />
  </g>
</svg>